<svg xmlns="http://www.w3.org/2000/svg" width="169.582" height="63.785" viewBox="0 0 169.582 63.785">
  <g id="Group_571" data-name="Group 571" transform="translate(-1.205 -0.346)">
    <g id="Group_6" data-name="Group 6" transform="translate(1.205 0.346)">
      <path id="Path_301" data-name="Path 301" d="M24.12,0A24.271,24.271,0,0,1,48.359,24.134,23.984,23.984,0,0,1,24.239,48.15,24.271,24.271,0,0,1,0,24.015,23.984,23.984,0,0,1,24.12,0Z" transform="translate(0 19.902) rotate(-24.302)" fill="#e02228"/>
      <g id="Group_5" data-name="Group 5" transform="translate(0.441 0.598)">
        <g id="Group_4" data-name="Group 4">
          <path id="Path_1" data-name="Path 1" d="M50.066,44.761c-5.387.993-12.489.936-17.406,1.97-7.506,1.232-11,4.973-11.5,5.966a9.882,9.882,0,0,1,2.868-5.377l-7.582-35.54-4.933,3.783L9.36,20.277c7.69,8.551,9.22,29.968,8.531,39.639l.041-.046.054.035c7.529-8.952,21.435-13.01,40.715-9.319l3.8-10.67S55.866,43.692,50.066,44.761Z" transform="translate(-2.974 -2.805)" fill="#fff"/>
          <g id="Group_3" data-name="Group 3">
            <g id="Group_2" data-name="Group 2">
              <path id="Path_2" data-name="Path 2" d="M33.281,1.06A31.3,31.3,0,1,0,64.739,32.4,31.436,31.436,0,0,0,33.281,1.06ZM33.2,60.439A28.241,28.241,0,0,1,18.47,56.294c-.6.585-1.184,1.189-1.736,1.828l.005-.013-.04.047c.051-.921.087-1.923.112-2.963A28.287,28.287,0,1,1,33.2,60.439Z" transform="translate(-1.732 -1.06)" fill="#221f1f"/>
            </g>
          </g>
        </g>
      </g>
    </g>
    <g id="Group_12" data-name="Group 12" transform="translate(75.547 10.713)">
      <g id="Group_9" data-name="Group 9" transform="translate(0 36.927)">
        <g id="Group_8" data-name="Group 8">
          <g id="Group_7" data-name="Group 7">
            <path id="Path_3" data-name="Path 3" d="M98.893,58.1v5.855a.524.524,0,0,1-.558.568.516.516,0,0,1-.547-.568v-2l.071-2.877h-.01L95.823,63.53a.748.748,0,0,1-.709.5.757.757,0,0,1-.719-.517l-2.016-4.426h-.02l.081,2.877v2a.552.552,0,1,1-1.1,0V58.111a.693.693,0,0,1,.709-.739c.455,0,.658.233.9.769l2.147,4.731h.03l2.147-4.741c.253-.527.456-.759.912-.759A.68.68,0,0,1,98.893,58.1Z" transform="translate(-91.336 -57.342)" fill="#221f1f"/>
            <path id="Path_4" data-name="Path 4" d="M109.845,63.747c.162.476-.091.77-.486.77-.243,0-.415-.162-.527-.476l-.537-1.418h-3.009l-.537,1.418c-.111.314-.294.476-.547.476a.514.514,0,0,1-.476-.76l2.137-5.773a.89.89,0,0,1,.922-.648.9.9,0,0,1,.932.648Zm-3.039-5.378h-.03l-1.206,3.393h2.441Z" transform="translate(-93.345 -57.336)" fill="#221f1f"/>
            <path id="Path_5" data-name="Path 5" d="M116.652,57.408a3.458,3.458,0,0,1,1.691.446,3.337,3.337,0,0,1,1.6,3.1,3.387,3.387,0,0,1-1.6,3.1,3.347,3.347,0,0,1-1.691.446h-1.985a.464.464,0,0,1-.527-.527V57.935a.485.485,0,0,1,.527-.527Zm-1.408.912V63.6h1.165a2.3,2.3,0,0,0,2.36-2.644,2.42,2.42,0,0,0-1-2.259,2.51,2.51,0,0,0-1.357-.375Z" transform="translate(-95.048 -57.348)" fill="#221f1f"/>
            <path id="Path_6" data-name="Path 6" d="M129.005,57.408a.457.457,0,1,1,0,.912h-3.393V60.6h2.847a.449.449,0,1,1,0,.892h-2.847v2.1h3.5a.458.458,0,1,1,0,.912h-4.081a.464.464,0,0,1-.527-.527V57.934a.485.485,0,0,1,.527-.527Z" transform="translate(-96.736 -57.347)" fill="#221f1f"/>
            <path id="Path_7" data-name="Path 7" d="M139.947,63.957a.524.524,0,0,1-.558.568.512.512,0,0,1-.547-.568V57.94c-.091-.749,1.186-.749,1.1,0Z" transform="translate(-99.069 -57.343)" fill="#221f1f"/>
            <path id="Path_8" data-name="Path 8" d="M149.892,57.939v5.876a.642.642,0,0,1-.7.709.849.849,0,0,1-.719-.476l-3.282-4.994h-.02l.051,2.3v2.6a.527.527,0,0,1-.568.568.509.509,0,0,1-.537-.568V58.061a.614.614,0,0,1,.668-.689.855.855,0,0,1,.72.445l3.312,4.984h.02l-.051-2.31V57.939a.552.552,0,1,1,1.1,0Z" transform="translate(-99.929 -57.342)" fill="#221f1f"/>
            <path id="Path_9" data-name="Path 9" d="M165.583,57.939v5.876a.642.642,0,0,1-.7.709.849.849,0,0,1-.719-.476l-3.282-4.994h-.02l.05,2.3v2.6a.526.526,0,0,1-.567.568.509.509,0,0,1-.537-.568V58.061a.614.614,0,0,1,.668-.689.853.853,0,0,1,.719.445L164.51,62.8h.02l-.05-2.31V57.939a.552.552,0,1,1,1.1,0Z" transform="translate(-102.483 -57.342)" fill="#221f1f"/>
            <path id="Path_10" data-name="Path 10" d="M175.171,57.408a.457.457,0,1,1,0,.912h-3.394V60.6h2.847a.449.449,0,1,1,0,.892h-2.847v2.1h3.505a.458.458,0,1,1,0,.912H171.2a.463.463,0,0,1-.527-.527V57.934a.485.485,0,0,1,.527-.527Z" transform="translate(-104.252 -57.347)" fill="#221f1f"/>
            <path id="Path_11" data-name="Path 11" d="M183.738,57.408a1.954,1.954,0,0,1,1.52.649,2.335,2.335,0,0,1,.01,3.109,1.9,1.9,0,0,1-1.5.648h-2.482v2.147a.524.524,0,0,1-.557.568.512.512,0,0,1-.548-.568V57.935a.482.482,0,0,1,.517-.527Zm-2.451.912V60.9h2.188a1.214,1.214,0,0,0,1.226-1.286,1.237,1.237,0,0,0-1.287-1.3Z" transform="translate(-105.799 -57.348)" fill="#221f1f"/>
            <path id="Path_12" data-name="Path 12" d="M195.231,63.747c.162.476-.091.77-.486.77-.244,0-.415-.162-.527-.476l-.537-1.418h-3.008l-.537,1.418c-.112.314-.294.476-.548.476a.514.514,0,0,1-.476-.76l2.137-5.773a.89.89,0,0,1,.923-.648.9.9,0,0,1,.932.648Zm-3.038-5.378h-.031l-1.2,3.393H193.4Z" transform="translate(-107.246 -57.336)" fill="#221f1f"/>
            <path id="Path_13" data-name="Path 13" d="M200.631,57.939v5.653h3.049a.454.454,0,1,1,0,.9h-3.627a.463.463,0,0,1-.527-.527V57.939a.494.494,0,0,1,.547-.567A.519.519,0,0,1,200.631,57.939Z" transform="translate(-108.949 -57.342)" fill="#221f1f"/>
          </g>
        </g>
      </g>
      <g id="Group_11" data-name="Group 11" transform="translate(0.465)">
        <g id="Group_10" data-name="Group 10">
          <path id="Path_14" data-name="Path 14" d="M93.332,32.41h10.886c.49,0,.749.2.749.6,0,.432-.26.634-.749.634H92.468a.578.578,0,0,1-.576-.576V14.179c0-.519.23-.778.72-.778s.72.259.72.778Z" transform="translate(-91.892 -13.257)" fill="#221f1f"/>
          <path id="Path_15" data-name="Path 15" d="M117.563,31a9.829,9.829,0,0,1-2.966-7.46,9.913,9.913,0,0,1,2.938-7.459,10.736,10.736,0,0,1,14.573,0,9.828,9.828,0,0,1,2.966,7.459A9.829,9.829,0,0,1,132.108,31a10.7,10.7,0,0,1-14.545,0Zm1.008-14a8.659,8.659,0,0,0-2.534,6.509,8.768,8.768,0,0,0,2.534,6.538,9.121,9.121,0,0,0,12.529.028,8.767,8.767,0,0,0,2.534-6.538A8.9,8.9,0,0,0,118.571,17Z" transform="translate(-95.588 -13.229)" fill="#221f1f"/>
          <path id="Path_16" data-name="Path 16" d="M164.995,14.467c.46.2.605.49.46.893-.143.374-.46.489-.921.288a2.092,2.092,0,0,0-.4-.173,6.731,6.731,0,0,0-1.066-.4,9.935,9.935,0,0,0-3.514-.548,8.94,8.94,0,0,0-6.595,2.65,8.672,8.672,0,0,0-2.621,6.364,8.868,8.868,0,0,0,2.534,6.423,8.618,8.618,0,0,0,6.423,2.592,9.164,9.164,0,0,0,6.278-2.362V25.066h-5.1a.621.621,0,0,1-.691-.634c0-.432.23-.634.691-.634h5.876a.578.578,0,0,1,.576.576v6.048a.478.478,0,0,1-.144.346,10.6,10.6,0,0,1-7.488,3.082,10.075,10.075,0,0,1-7.431-2.966,9.971,9.971,0,0,1-2.966-7.345,9.842,9.842,0,0,1,3.024-7.315,10.273,10.273,0,0,1,7.488-3A12.773,12.773,0,0,1,164.995,14.467Z" transform="translate(-101.172 -13.229)" fill="#221f1f"/>
          <path id="Path_17" data-name="Path 17" d="M183.442,31a9.826,9.826,0,0,1-2.967-7.46,9.913,9.913,0,0,1,2.938-7.459,10.736,10.736,0,0,1,14.573,0,9.825,9.825,0,0,1,2.966,7.459A9.826,9.826,0,0,1,197.986,31a10.7,10.7,0,0,1-14.544,0Zm1.008-14a8.656,8.656,0,0,0-2.535,6.509,8.765,8.765,0,0,0,2.535,6.538,9.12,9.12,0,0,0,12.528.028,8.763,8.763,0,0,0,2.534-6.538A8.9,8.9,0,0,0,184.45,17Z" transform="translate(-106.313 -13.229)" fill="#221f1f"/>
        </g>
      </g>
      <line id="Line_1" data-name="Line 1" x2="94.852" transform="translate(0.305 28.175)" fill="none" stroke="#221f1f" stroke-miterlimit="10" stroke-width="0.6"/>
    </g>
  </g>
</svg>
